<svg xmlns="http://www.w3.org/2000/svg" width="16" height="16" viewBox="0 0 16 16">
    <g fill="#00F6D2" stroke="#00F6D2" stroke-width=".5">
        <path d="M11.801 9.14c-.14 0-.279-.052-.385-.159-.213-.213-.213-.557 0-.77l1.1-1.1c.502-.497.778-1.16.778-1.87 0-1.46-1.188-2.647-2.647-2.647-.71 0-1.373.275-1.869.776L7.676 4.47c-.213.213-.557.213-.77 0-.213-.213-.213-.557 0-.77l1.1-1.1c.701-.706 1.639-1.097 2.64-1.097 2.061 0 3.737 1.677 3.737 3.737 0 1.003-.39 1.94-1.099 2.642l-1.098 1.098c-.106.107-.245.16-.385.16zM5.137 14.188c-2.06 0-3.737-1.676-3.737-3.737 0-1.003.39-1.94 1.099-2.642L3.597 6.71c.213-.213.558-.213.77 0 .214.213.214.557 0 .77l-1.1 1.1c-.502.497-.778 1.16-.778 1.87 0 1.46 1.188 2.647 2.648 2.647.709 0 1.372-.275 1.868-.775l1.102-1.102c.213-.213.557-.213.77 0 .213.213.213.557 0 .77l-1.1 1.1c-.7.706-1.639 1.097-2.64 1.097h0z"/>
        <path d="M9.646 6.786c-.14 0-.279-.053-.385-.16-.213-.213-.213-.557 0-.77l1.024-1.024c.213-.213.557-.213.77 0 .213.213.213.557 0 .77l-1.024 1.024c-.106.107-.245.16-.385.16h0zM5.213 11.12c-.14 0-.279-.054-.385-.16-.213-.213-.213-.557 0-.77l1.024-1.024c.213-.213.557-.213.77 0 .213.213.213.557 0 .77L5.598 10.96c-.106.106-.246.16-.385.16zM13.438 13.988c-.139 0-.278-.054-.385-.16L2.16 2.934c-.213-.213-.213-.557 0-.77.213-.213.557-.213.77 0l10.894 10.894c.213.213.213.557 0 .77-.107.106-.246.16-.386.16z"/>
    </g>
</svg>
